<?xml version="1.0" standalone="no"?><!DOCTYPE svg PUBLIC "-//W3C//DTD SVG 1.1//EN" "http://www.w3.org/Graphics/SVG/1.1/DTD/svg11.dtd"><svg t="1556523549652" class="icon" style="" viewBox="0 0 1024 1024" version="1.1" xmlns="http://www.w3.org/2000/svg" p-id="6604" xmlns:xlink="http://www.w3.org/1999/xlink" width="64" height="64"><defs><style type="text/css"></style></defs><path d="M511.500488 73.927805c59.342049 0 116.785951 11.588683 170.933073 34.466341 52.248976 22.078439 99.203122 53.747512 139.563707 94.108098 40.360585 40.360585 72.029659 87.314732 94.108098 139.563707 22.877659 54.04722 34.466341 111.591024 34.466341 170.933073 0 59.342049-11.588683 116.785951-34.466341 170.933074-22.078439 52.248976-53.747512 99.203122-94.108098 139.563707-40.360585 40.360585-87.314732 72.029659-139.563707 94.108097-54.147122 22.877659-111.591024 34.466341-170.933073 34.466342s-116.785951-11.588683-170.933073-34.466342c-52.248976-22.078439-99.203122-53.747512-139.563708-94.108097s-72.029659-87.314732-94.108097-139.563707C84.017951 629.784976 72.429268 572.341073 72.429268 512.999024c0-59.342049 11.588683-116.785951 34.466342-170.933073 22.078439-52.248976 53.747512-99.203122 94.108097-139.563707s87.314732-72.029659 139.563708-94.108098C394.714537 85.516488 452.158439 73.927805 511.500488 73.927805m0-71.929756C229.276098 1.998049 0.499512 230.774634 0.499512 512.999024S229.276098 1024 511.500488 1024 1022.501463 795.223415 1022.501463 512.999024 793.724878 1.998049 511.500488 1.998049z" p-id="6605" fill="#8992c8"></path><path d="M243.262439 340.667317c13.187122 0 23.976585 10.789463 23.976585 23.976585s-10.789463 23.976585-23.976585 23.976586-23.976585-10.789463-23.976585-23.976586 10.789463-23.976585 23.976585-23.976585m0-59.941463c-46.354732 0-83.918049 37.563317-83.918049 83.918048s37.563317 83.918049 83.918049 83.918049 83.918049-37.563317 83.918049-83.918049-37.563317-83.918049-83.918049-83.918048zM770.747317 327.68c13.187122 0 23.976585 10.789463 23.976585 23.976585s-10.789463 23.976585-23.976585 23.976586-23.976585-10.789463-23.976585-23.976586 10.789463-23.976585 23.976585-23.976585m0-59.941463c-46.354732 0-83.918049 37.563317-83.918049 83.918048s37.563317 83.918049 83.918049 83.918049 83.918049-37.563317 83.918049-83.918049-37.563317-83.918049-83.918049-83.918048zM511.700293 782.236098c13.187122 0 23.976585 10.789463 23.976585 23.976585s-10.789463 23.976585-23.976585 23.976585-23.976585-10.789463-23.976586-23.976585 10.789463-23.976585 23.976586-23.976585m0-59.941464c-46.354732 0-83.918049 37.563317-83.918049 83.918049s37.563317 83.918049 83.918049 83.918049 83.918049-37.563317 83.918048-83.918049-37.563317-83.918049-83.918048-83.918049zM293.713171 597.416585c15.185171 0 27.473171 12.288 27.47317 27.473171S308.898341 652.362927 293.713171 652.362927 266.24 640.074927 266.24 624.889756s12.288-27.473171 27.473171-27.473171m0-59.941463c-48.252878 0-87.414634 39.161756-87.414634 87.414634s39.161756 87.414634 87.414634 87.414634 87.414634-39.161756 87.414634-87.414634-39.161756-87.414634-87.414634-87.414634zM742.275122 597.416585c15.185171 0 27.473171 12.288 27.473171 27.473171S757.460293 652.362927 742.275122 652.362927 714.801951 640.074927 714.801951 624.889756s12.288-27.473171 27.473171-27.473171m0-59.941463c-48.252878 0-87.414634 39.161756-87.414634 87.414634s39.161756 87.414634 87.414634 87.414634 87.414634-39.161756 87.414634-87.414634-39.161756-87.414634-87.414634-87.414634zM511.700293 241.464195c15.185171 0 27.473171 12.288 27.47317 27.473171s-12.288 27.473171-27.47317 27.473171-27.473171-12.288-27.473171-27.473171 12.387902-27.473171 27.473171-27.473171m0-59.941463c-48.252878 0-87.414634 39.161756-87.414634 87.414634s39.161756 87.414634 87.414634 87.414634 87.414634-39.161756 87.414634-87.414634-39.061854-87.414634-87.414634-87.414634z" p-id="6606" fill="#8992c8"></path><path d="M298.382611 558.081998L461.799024 293.718166l50.986209 31.517221L349.36882 589.59922zM514.384671 326.1445l49.907263-33.201577 175.858263 264.341854-49.908261 33.201576zM336.371512 612.601756h350.757464v59.941464H336.371512z" p-id="6607" fill="#8992c8"></path><path d="M220.135024 439.594708l58.299068-13.942384 32.973799 137.877354-58.299068 13.942384zM537.700901 759.00878l164.819044-105.889592 32.398361 50.428753-164.819044 105.888594zM573.478962 302.399688l22.885651-55.403895 137.863367 56.947387-22.88565 55.403895zM266.264976 293.21166l169.827153-73.920811 23.922638 54.960328-169.827153 73.920811zM315.056328 701.405034l38.230665-46.165916L481.169108 761.136702l-38.230665 46.166916zM735.97927 563.013182l19.984484-171.872156 59.539856 6.923239-19.984484 171.872156z" p-id="6608" fill="#8992c8"></path></svg>