<?xml version="1.0" standalone="no"?><!DOCTYPE svg PUBLIC "-//W3C//DTD SVG 1.1//EN" "http://www.w3.org/Graphics/SVG/1.1/DTD/svg11.dtd"><svg t="1556979832839" class="icon" style="" viewBox="0 0 1024 1024" version="1.1" xmlns="http://www.w3.org/2000/svg" p-id="2005" xmlns:xlink="http://www.w3.org/1999/xlink" width="64" height="64"><defs><style type="text/css"></style></defs><path d="M80 80l0 864 864 0L944 80 80 80zM119.3 119.3l785.5 0 0 528.4L119.3 647.7 119.3 119.3 119.3 119.3zM119.3 686.9l69 0-69 146.4L119.3 686.9zM231.1 686.9l73.8 0L202.6 903.5l-73.8 0L231.1 686.9zM349 686.9l73.8 0L320.4 903.5l-73.8 0L349 686.9zM466.8 686.9l73.8 0L438.2 903.5l-73.8 0L466.8 686.9zM584.6 686.9l73.8 0L556 903.5l-73.8 0L584.6 686.9zM702.4 686.9l73.8 0L673.9 903.5l-73.8 0L702.4 686.9zM820.2 686.9l75 0L792.9 903.5l-73.8 0L820.2 686.9zM904.7 904.7l-69 0 66.6-142.8 1.2-2.4 0 145.2L904.7 904.7z" p-id="2006" fill="#ffffff"></path></svg>