<?xml version="1.0" standalone="no"?><!DOCTYPE svg PUBLIC "-//W3C//DTD SVG 1.1//EN" "http://www.w3.org/Graphics/SVG/1.1/DTD/svg11.dtd"><svg t="1556981734051" class="icon" style="" viewBox="0 0 1024 1024" version="1.1" xmlns="http://www.w3.org/2000/svg" p-id="2823" xmlns:xlink="http://www.w3.org/1999/xlink" width="64" height="64"><defs><style type="text/css"></style></defs><path d="M512 1024A512 512 0 1 1 512 0a512 512 0 0 1 0 1024z m246.016-554.624L549.696 274.944a55.552 55.552 0 0 0-83.008-0.704L266.112 469.312a35.136 35.136 0 0 0 25.344 59.904h18.112v198.336c0 30.72 24.576 55.68 55.296 55.68h86.08c11.136 0 21.12-8.96 21.12-20.16V631.04c0-5.632 3.648-10.624 9.28-10.624h60.8c5.568 0 9.856 5.056 9.856 10.624v131.84a20.48 20.48 0 0 0 20.48 20.288h86.144c30.72 0 55.872-24.96 55.872-55.744v-198.4h17.92a35.2 35.2 0 0 0 25.6-59.712z" p-id="2824" fill="#ffffff"></path></svg>