<?xml version="1.0" standalone="no"?><!DOCTYPE svg PUBLIC "-//W3C//DTD SVG 1.1//EN" "http://www.w3.org/Graphics/SVG/1.1/DTD/svg11.dtd"><svg t="1556259030583" class="icon" style="" viewBox="0 0 1024 1024" version="1.1" xmlns="http://www.w3.org/2000/svg" p-id="1997" xmlns:xlink="http://www.w3.org/1999/xlink" width="64" height="64"><defs><style type="text/css"></style></defs><path d="M862.208 291.84H824.32V142.5408A116.9408 116.9408 0 0 0 707.8912 25.6H177.8176A116.9408 116.9408 0 0 0 61.44 142.5408v739.9936A116.0704 116.0704 0 0 0 177.152 998.4h685.056a116.0704 116.0704 0 0 0 115.712-115.8656V407.7056A116.0704 116.0704 0 0 0 862.208 291.84zM747.52 144.8448V926.72H175.6672a42.7008 42.7008 0 0 1-42.5472-42.496V144.896a42.6496 42.6496 0 0 1 42.5472-42.496h529.3056a42.7008 42.7008 0 0 1 42.5472 42.4448z m158.72 261.376v477.7984a43.264 43.264 0 0 1-43.52 42.7008H819.2V363.52h43.52a43.264 43.264 0 0 1 43.52 42.7008z" p-id="1998" fill="#ffffff"></path><path d="M215.04 362.8544V297.3696l53.8624 80.0768A26.5216 26.5216 0 0 0 290.9696 389.12a25.6 25.6 0 0 0 7.6288-1.1264A26.1632 26.1632 0 0 0 317.44 362.8544V210.5856a26.0096 26.0096 0 0 0-7.7824-18.5856 26.368 26.368 0 0 0-18.7392-7.68h-3.2768A26.4192 26.4192 0 0 0 261.12 210.5856v65.4848L206.2848 194.56a16.9984 16.9984 0 0 0-4.3008-4.6592 27.2896 27.2896 0 0 0-31.488-1.1264 26.0608 26.0608 0 0 0-11.776 21.8112v152.2688a26.88 26.88 0 0 0 19.2 25.6 16.5376 16.5376 0 0 0 5.12 0.768h5.888a24.1152 24.1152 0 0 0 9.8816-1.8944A26.5728 26.5728 0 0 0 215.04 362.8544zM208.9984 512.256a35.84 35.84 0 0 0 25.6 61.44h411.9552a35.84 35.84 0 0 0 0-71.68H234.3424a35.84 35.84 0 0 0-25.344 10.24zM378.88 389.12h98.048a26.8288 26.8288 0 0 0 14.1824-3.6864 25.6 25.6 0 0 0-13.312-47.5136H404.48v-25.6h73.3184a24.2688 24.2688 0 0 0 10.24-2.0992 25.6 25.6 0 0 0 15.36-23.5008 25.6 25.6 0 0 0-12.3392-21.9136 26.624 26.624 0 0 0-14.1312-3.6864H404.48v-25.6h73.3184a24.2688 24.2688 0 0 0 10.24-2.0992 25.6 25.6 0 0 0 15.36-23.5008 25.6 25.6 0 0 0-12.3392-21.9136 26.624 26.624 0 0 0-14.1312-3.6864H378.88a23.7568 23.7568 0 0 0-10.24 2.1504A25.6 25.6 0 0 0 353.28 209.92v153.6a25.6 25.6 0 0 0 25.6 25.6zM696.7296 183.5008a26.5216 26.5216 0 0 0-29.5424 22.1184L660.48 252.672l-18.432-52.0704a25.6 25.6 0 0 0-24.832-16.2816 25.6 25.6 0 0 0-24.576 16.3328l-18.3808 51.968-6.912-47.1552a26.1632 26.1632 0 0 0-51.7632 7.7312l22.016 151.6544a26.1632 26.1632 0 0 0 23.3472 22.272 26.4704 26.4704 0 0 0 27.0848-17.3568l28.9792-81.92 29.0816 81.92a26.2656 26.2656 0 0 0 24.6784 17.408 21.4016 21.4016 0 0 0 2.56 0 26.1632 26.1632 0 0 0 23.3472-22.272l22.1184-151.7056a26.2656 26.2656 0 0 0-22.0672-29.696zM646.2976 768H234.3424a35.84 35.84 0 0 0 0 71.68h411.9552a34.56 34.56 0 0 0 15.8208-3.5328 35.84 35.84 0 0 0-15.8208-68.1472zM646.2976 634.88H234.3424a35.84 35.84 0 0 0 0 71.68h411.9552a34.56 34.56 0 0 0 15.8208-3.5328 35.84 35.84 0 0 0-15.8208-68.1472z m5.5808 10.24z" p-id="1999" fill="#ffffff"></path></svg>