<?xml version="1.0" standalone="no"?><!DOCTYPE svg PUBLIC "-//W3C//DTD SVG 1.1//EN" "http://www.w3.org/Graphics/SVG/1.1/DTD/svg11.dtd"><svg t="1556523374041" class="icon" style="" viewBox="0 0 1024 1024" version="1.1" xmlns="http://www.w3.org/2000/svg" p-id="5666" xmlns:xlink="http://www.w3.org/1999/xlink" width="64" height="64"><defs><style type="text/css"></style></defs><path d="M736 316.8c-28.8 0-54.4 28.8-54.4 60.8 0 19.2 6.4 35.2 19.2 48L624 547.2c-6.4-3.2-16-6.4-22.4-6.4-9.6 0-19.2 3.2-28.8 9.6L470.4 435.2c3.2-9.6 6.4-19.2 6.4-32 0-35.2-25.6-60.8-54.4-60.8-28.8 0-54.4 28.8-54.4 60.8 0 16 6.4 32 16 44.8l-60.8 102.4c-3.2-6.4-12.8-9.6-19.2-9.6-28.8 0-54.4 28.8-54.4 60.8s25.6 60.8 54.4 60.8 54.4-28.8 54.4-60.8c0-12.8-3.2-25.6-9.6-35.2l64-105.6c3.2 3.2 9.6 3.2 12.8 3.2 9.6 0 19.2-3.2 28.8-9.6l102.4 115.2c-6.4 9.6-6.4 19.2-6.4 32 0 35.2 25.6 60.8 54.4 60.8 28.8 0 54.4-28.8 54.4-60.8 0-12.8-3.2-25.6-9.6-35.2l80-128h9.6c28.8 0 54.4-28.8 54.4-60.8-3.2-32-25.6-60.8-57.6-60.8" p-id="5667" fill="#078525"></path><path d="M524.7 926.3c-239.1 0-433.6-194.5-433.6-433.6 0-58.3 11.7-113.8 32.7-164.7C188.4 170 343.5 58.6 524.7 58.6c10 0 19.9 0.8 29.8 1.5 0.9 0.1 1.8 0.1 2.7 0.1 9.5 0.7 18.9 1.8 28.2 3.1 2.1 0.3 4.1 0.6 6.2 0.9 29.3 4.6 57.6 12 84.6 22.1 0.7 0.3 1.3 0.5 2 0.7 50.8 19.3 97 47.8 136.5 83.6h0.1c0.5 0.5 1 0.9 1.5 1.4l1.3 1.3c39.3 36.2 71.9 79.5 95.7 128.1l0.3-0.3c1.2 2.5 2.1 5.2 3.3 7.7 4.2 9.1 8.2 18.3 11.8 27.7 2.2 5.8 4.4 11.6 6.4 17.4 2.7 8 5 16.1 7.2 24.2 2 7.3 4 14.5 5.6 22 1.4 6.4 2.3 13 3.4 19.5 1.6 9.2 3.3 18.4 4.2 27.7 0.1 0.7 0 1.4 0.1 2.1 1.4 14.2 2.5 28.6 2.5 43.1 0.2 239.3-194.3 433.8-433.4 433.8m454-625.4c-24.9-58.7-60.3-111.4-105.6-156.6C827.8 99 775.2 63.5 716.5 38.7 655.8 13 591.2 0 524.7 0c-66.5 0-131 13-191.8 38.8-58.7 24.8-111.4 60.3-156.6 105.6C131 189.6 95.6 242.3 70.7 301 45 361.7 32 426.2 32 492.7s13 131 38.8 191.8c24.8 58.7 60.3 111.3 105.6 156.6s97.9 80.8 156.6 105.6c60.8 25.7 125.3 38.7 191.8 38.7 66.5 0 131-13 191.8-38.7 58.6-24.8 111.3-60.3 156.6-105.6s80.7-97.9 105.6-156.6c25.7-60.8 38.8-125.3 38.8-191.8s-13.2-131-38.9-191.8" p-id="5668" fill="#078525"></path></svg>