<?xml version="1.0" standalone="no"?><!DOCTYPE svg PUBLIC "-//W3C//DTD SVG 1.1//EN" "http://www.w3.org/Graphics/SVG/1.1/DTD/svg11.dtd"><svg t="1556951341813" class="icon" style="" viewBox="0 0 1102 1024" version="1.1" xmlns="http://www.w3.org/2000/svg" p-id="1965" xmlns:xlink="http://www.w3.org/1999/xlink" width="68.875" height="64"><defs><style type="text/css"></style></defs><path d="M945.6 1024H315.2c-86.4 0-156.8-70.4-156.8-156.8V315.2c0-86.4 70.4-156.8 156.8-156.8h630.4c86.4 0 156.8 70.4 156.8 156.8v552c0 86.4-70.4 156.8-156.8 156.8zM1024 315.2c0-43.2-35.2-78.4-78.4-78.4H315.2c-43.2 0-78.4 35.2-78.4 78.4v552c0 43.2 35.2 78.4 78.4 78.4h630.4c43.2 0 78.4-35.2 78.4-78.4V315.2zM355.2 748.8h552c22.4 0 40 17.6 40 40s-17.6 40-40 40H355.2c-22.4 0-40-17.6-40-40s17.6-40 40-40z m0-196.8h393.6c22.4 0 40 17.6 40 40s-17.6 40-40 40H355.2c-22.4 0-40-17.6-40-40s17.6-40 40-40z m0-196.8H512c22.4 0 40 17.6 40 40s-17.6 40-40 40h-156.8c-22.4 0-40-17.6-40-40s17.6-40 40-40z m432-276.8H156.8c-43.2 0-78.4 35.2-78.4 78.4v552c0 24 9.6 43.2 25.6 57.6 8 6.4 12.8 16 12.8 27.2v3.2c0 33.6-38.4 51.2-64 28.8-32-27.2-52.8-68.8-52.8-116.8V156.8C0 70.4 70.4 0 156.8 0h630.4c48 0 89.6 20.8 118.4 54.4 20.8 25.6 4.8 64-28.8 64h-3.2c-11.2 0-20.8-4.8-27.2-12.8-14.4-16-35.2-27.2-59.2-27.2z" p-id="1966" fill="#ffffff"></path></svg>