<?xml version="1.0" standalone="no"?><!DOCTYPE svg PUBLIC "-//W3C//DTD SVG 1.1//EN" "http://www.w3.org/Graphics/SVG/1.1/DTD/svg11.dtd"><svg t="1556523302059" class="icon" style="" viewBox="0 0 1024 1024" version="1.1" xmlns="http://www.w3.org/2000/svg" p-id="4806" xmlns:xlink="http://www.w3.org/1999/xlink" width="64" height="64"><defs><style type="text/css"></style></defs><path d="M512 0C228.266667 0 0 228.266667 0 512s228.266667 512 512 512 512-228.266667 512-512S795.733333 0 512 0zM283.733333 396.8l147.2-87.466667c10.666667-6.4 23.466667-2.133333 29.866667 6.4 6.4 10.666667 2.133333 23.466667-6.4 29.866667L354.133333 405.333333H768c10.666667 0 21.333333 10.666667 21.333333 21.333334s-10.666667 21.333333-21.333333 21.333333H298.666667c-10.666667 0-21.333333-10.666667-21.333334-21.333333-6.4-10.666667-2.133333-23.466667 6.4-29.866667z m499.2 273.066667l-147.2 87.466666c-10.666667 6.4-23.466667 2.133333-29.866666-6.4-6.4-10.666667-2.133333-23.466667 6.4-29.866666l98.133333-57.6H298.666667c-10.666667 0-21.333333-10.666667-21.333334-21.333334s10.666667-21.333333 21.333334-21.333333h469.333333c10.666667 0 21.333333 10.666667 21.333333 21.333333 6.4 8.533333 2.133333 21.333333-6.4 27.733334z" p-id="4807" fill="#b21243"></path></svg>